<?xml version="1.0" encoding="UTF-8" standalone="no"?>
<!DOCTYPE svg PUBLIC "-//W3C//DTD SVG 1.1//EN" "http://www.w3.org/Graphics/SVG/1.1/DTD/svg11.dtd">
<svg xmlns="http://www.w3.org/2000/svg" version="1.1" viewBox="0.00 0.00 189.00 41.00">
<path fill="#fff" d="
  M 60.91 0.00
  L 61.25 0.00
  L 61.65 0.32
  Q 61.99 0.59 61.99 1.02
  L 61.96 41.00
  L 56.76 41.00
  L 56.77 1.76
  Q 56.77 1.22 57.30 1.06
  L 60.91 0.00
  Z"
/>
<path fill="#fff" d="
  M 71.48 41.00
  L 66.25 41.00
  L 66.25 1.59
  Q 66.25 1.06 66.77 0.96
  L 70.95 0.14
  A 0.48 0.47 -5.6 0 1 71.52 0.60
  L 71.49 13.02
  Q 71.49 13.54 72.02 13.53
  L 77.59 13.43
  Q 77.76 13.42 77.73 13.59
  L 76.84 18.35
  A 0.43 0.42 -84.1 0 1 76.43 18.69
  L 71.84 18.74
  Q 71.49 18.74 71.49 19.09
  L 71.48 41.00
  Z"
/>
<path fill="#fff" d="
  M 0.00 2.73
  L 3.45 2.76
  A 0.91 0.91 0.0 0 1 4.34 3.50
  Q 6.55 15.26 8.92 27.05
  Q 9.02 27.55 9.41 27.80
  Q 9.90 28.12 9.73 27.55
  L 9.64 27.22
  Q 9.54 26.91 9.61 26.59
  L 14.29 2.97
  Q 14.34 2.72 14.58 2.73
  L 19.03 2.81
  Q 19.31 2.81 19.26 3.09
  L 11.86 41.00
  L 6.69 41.00
  L 0.00 7.87
  L 0.00 2.73
  Z"
/>
<path fill="#fff" d="
  M 97.94 41.00
  L 86.03 41.00
  Q 81.79 40.24 81.78 36.51
  Q 81.71 21.35 81.77 6.73
  A 3.99 3.99 0.0 0 1 85.76 2.75
  L 98.50 2.75
  A 3.50 3.49 -90.0 0 1 101.99 6.25
  L 102.00 14.22
  Q 102.00 15.10 101.15 14.89
  L 98.10 14.13
  Q 97.10 13.88 97.05 12.85
  L 96.90 9.77
  Q 96.80 7.75 94.78 7.75
  L 89.00 7.75
  Q 87.00 7.75 87.00 9.75
  L 87.00 33.84
  Q 87.00 35.68 88.84 35.71
  L 95.29 35.78
  A 1.60 1.60 0.0 0 0 96.91 34.23
  L 97.05 29.66
  Q 97.08 28.49 95.91 28.49
  L 92.52 28.51
  Q 92.01 28.51 92.13 28.01
  L 93.06 24.01
  A 0.67 0.67 0.0 0 1 93.71 23.49
  L 101.50 23.51
  Q 101.98 23.51 101.98 23.98
  Q 102.04 30.53 101.99 36.99
  Q 101.97 40.55 97.94 41.00
  Z"
/>
<path fill="#fff" d="
  M 52.97 41.00
  L 41.19 41.00
  Q 38.06 40.40 37.56 37.35
  Q 37.54 37.22 37.52 32.67
  Q 37.47 23.10 37.51 13.78
  Q 37.51 13.53 37.76 13.53
  L 42.47 13.45
  Q 42.74 13.44 42.74 13.72
  L 42.76 34.19
  A 1.33 1.33 0.0 0 0 43.93 35.50
  L 46.78 35.83
  Q 47.75 35.94 47.75 34.96
  L 47.75 14.25
  A 0.76 0.76 0.0 0 1 48.51 13.49
  L 52.29 13.51
  Q 53.00 13.51 53.00 14.22
  L 52.97 41.00
  Z"
/>
<path fill="#fff" d="
  M 122.91 41.00
  L 111.19 41.00
  Q 107.40 40.28 107.46 35.50
  C 107.51 31.47 106.54 28.03 109.78 25.01
  A 0.96 0.94 22.3 0 1 110.40 24.76
  L 115.76 24.73
  A 2.30 2.30 0.0 0 0 118.04 22.36
  L 118.01 21.46
  Q 117.93 18.74 115.21 18.74
  L 111.01 18.75
  Q 110.00 18.75 110.21 17.76
  L 110.90 14.46
  Q 111.14 13.31 112.31 13.40
  C 117.43 13.79 122.97 11.65 123.00 19.45
  Q 123.05 30.23 122.91 41.00
  Z
  M 113.77 35.50
  L 117.17 35.84
  Q 118.00 35.92 118.00 35.08
  L 118.00 30.49
  Q 118.00 29.74 117.24 29.74
  L 114.49 29.74
  A 1.04 1.03 16.7 0 0 113.66 30.18
  Q 112.14 32.38 113.07 34.96
  Q 113.25 35.45 113.77 35.50
  Z"
/>
<path fill="#fff" d="
  M 34.22 41.00
  L 23.06 41.00
  C 20.29 40.46 19.02 39.38 19.01 36.38
  Q 18.98 32.52 19.03 28.76
  C 19.10 23.69 24.14 24.88 27.32 24.71
  A 2.06 2.05 88.7 0 0 29.25 22.68
  L 29.27 20.94
  A 2.12 2.12 0.0 0 0 27.19 18.81
  L 22.22 18.71
  A 0.80 0.80 0.0 0 1 21.46 17.72
  L 22.34 14.23
  Q 22.53 13.50 23.27 13.50
  L 30.46 13.50
  A 3.77 3.77 0.0 0 1 34.23 17.27
  L 34.22 41.00
  Z
  M 29.25 35.39
  L 29.25 30.11
  A 0.37 0.37 0.0 0 0 28.88 29.74
  L 26.46 29.74
  A 2.47 2.38 -0.0 0 0 23.99 32.12
  L 23.99 33.38
  A 2.47 2.38 0.0 0 0 26.46 35.76
  L 28.88 35.76
  A 0.37 0.37 0.0 0 0 29.25 35.39
  Z"
/>
<path fill="#fff" d="
  M 152.22 41.00
  L 147.25 41.00
  L 147.25 20.80
  Q 147.25 19.18 145.65 18.96
  L 143.43 18.66
  Q 141.96 18.46 141.96 19.95
  L 141.93 41.00
  L 137.09 41.00
  L 136.98 20.95
  Q 136.97 19.03 135.05 18.84
  L 133.35 18.68
  Q 131.73 18.52 131.73 20.16
  L 131.72 41.00
  L 126.75 41.00
  L 126.75 14.48
  A 0.98 0.98 0.0 0 1 127.73 13.50
  L 148.02 13.50
  A 4.21 4.21 0.0 0 1 152.23 17.71
  L 152.22 41.00
  Z"
/>
<path fill="#fff" d="
  M 170.99 41.00
  L 160.00 41.00
  L 158.02 40.22
  A 3.56 3.55 -79.4 0 1 155.75 36.90
  L 155.75 17.21
  A 3.61 3.60 89.6 0 1 159.29 13.61
  L 167.22 13.45
  A 3.70 3.70 0.0 0 1 170.99 17.11
  Q 171.02 20.52 171.01 24.79
  C 170.98 30.69 165.83 29.79 162.04 29.72
  Q 160.36 29.68 160.61 31.35
  L 161.02 34.01
  A 2.06 2.05 85.6 0 0 163.05 35.75
  L 169.52 35.75
  Q 169.98 35.75 170.06 36.20
  L 170.99 41.00
  Z
  M 165.28 23.86
  C 166.39 22.54 166.44 19.07 164.02 18.75
  C 160.50 18.29 160.49 21.70 160.78 24.26
  Q 160.84 24.72 161.30 24.75
  C 162.77 24.84 164.26 25.06 165.28 23.86
  Z"
/>
<path fill="#fff" d="
  M 189.00 14.64
  L 189.00 22.00
  L 185.14 21.95
  Q 184.63 21.95 184.45 21.47
  Q 184.16 20.69 184.26 19.85
  Q 184.32 19.35 183.86 19.14
  C 180.10 17.43 178.51 20.85 179.98 23.99
  Q 180.18 24.41 180.64 24.47
  C 183.40 24.89 186.92 24.00 189.00 26.14
  L 189.00 38.99
  Q 187.86 40.56 186.11 41.00
  L 177.97 41.00
  C 174.22 40.19 173.88 36.09 174.35 32.83
  Q 174.43 32.26 175.01 32.26
  L 178.74 32.25
  Q 179.23 32.25 179.34 32.73
  L 179.75 34.63
  Q 179.88 35.19 180.41 35.39
  Q 182.44 36.15 184.06 34.99
  Q 184.52 34.66 184.54 34.09
  Q 184.60 32.25 184.01 30.48
  A 0.95 0.94 -7.5 0 0 183.15 29.83
  L 177.15 29.59
  Q 176.67 29.57 176.30 29.27
  C 173.27 26.86 174.02 18.64 174.53 16.50
  C 175.59 12.02 185.71 13.33 189.00 14.64
  Z"
/>
</svg>
