<?xml version="1.0" encoding="UTF-8" standalone="no"?>
<!DOCTYPE svg PUBLIC "-//W3C//DTD SVG 1.1//EN" "http://www.w3.org/Graphics/SVG/1.1/DTD/svg11.dtd">
<svg xmlns="http://www.w3.org/2000/svg" version="1.1" viewBox="0.00 0.00 394.00 440.00">
<g stroke-width="2.00" fill="none" stroke-linecap="butt">
<path stroke="#6d6b28" vector-effect="non-scaling-stroke" d="
  M 246.31 37.38
  C 254.95 41.09 269.23 31.69 274.15 42.16
  C 277.10 48.44 272.42 52.38 268.50 56.29
  Q 268.11 56.69 268.60 56.96
  C 275.06 60.50 279.01 66.02 282.53 72.27
  A 0.58 0.58 0.0 0 0 283.59 72.16
  C 286.42 63.23 289.81 44.40 280.34 38.27
  Q 279.91 37.99 279.84 37.49
  Q 279.28 33.41 276.84 31.40
  Q 270.76 26.42 267.40 21.15
  C 265.06 17.47 263.64 15.81 259.74 14.80
  C 256.19 13.88 252.05 14.06 248.99 12.47
  C 245.46 10.64 240.63 5.99 234.89 6.49"
/>
<path stroke="#7b793a" vector-effect="non-scaling-stroke" d="
  M 234.89 6.49
  C 229.78 5.80 226.58 17.75 218.75 15.95
  C 215.07 15.10 206.32 12.74 204.42 16.97
  Q 200.33 26.05 191.34 27.42
  C 186.45 28.17 182.45 26.72 180.16 22.28
  A 0.39 0.38 -42.0 0 0 179.49 22.25
  C 176.25 27.25 176.24 33.56 180.24 38.04
  C 183.29 41.45 190.01 44.69 193.55 39.78
  C 197.84 33.83 202.81 27.47 210.89 28.44
  C 214.18 28.84 216.85 31.33 220.05 31.67
  C 224.63 32.16 225.76 29.35 229.39 28.42
  Q 231.28 27.94 233.25 27.82
  C 241.33 27.36 240.67 34.57 246.31 37.38"
/>
<path stroke="#e8e462" vector-effect="non-scaling-stroke" d="
  M 234.89 6.49
  Q 244.47 16.15 245.87 27.00
  Q 246.14 29.12 246.31 37.38"
/>
<path stroke="#807057" vector-effect="non-scaling-stroke" d="
  M 217.83 139.07
  L 220.98 140.02
  Q 225.51 141.38 220.78 141.31
  Q 217.69 141.26 214.24 140.30
  Q 212.28 139.75 213.82 141.08
  C 223.58 149.46 246.81 142.32 249.36 129.56
  A 0.57 0.57 0.0 0 0 248.61 128.91
  Q 245.22 130.10 241.73 129.22
  Q 239.88 128.76 241.70 128.21
  C 250.94 125.41 257.95 117.29 262.32 109.02
  A 1.25 1.25 0.0 0 1 263.44 108.36
  C 267.19 108.44 273.30 107.88 275.85 104.61
  C 278.77 100.84 283.50 89.33 274.52 88.84
  A 0.41 0.40 -69.9 0 1 274.22 88.19
  L 275.75 86.16
  Q 276.08 85.72 276.60 85.91
  L 277.51 86.24
  Q 279.36 86.91 278.23 85.30
  Q 271.48 75.73 261.86 69.05
  A 0.51 0.51 0.0 0 1 261.76 68.30
  L 261.93 68.10
  Q 262.39 67.57 263.03 67.85
  Q 274.08 72.61 278.64 83.58
  A 0.36 0.36 0.0 0 0 279.32 83.54
  L 279.80 81.84
  Q 280.10 80.80 279.51 79.89
  Q 272.87 69.70 262.50 63.45
  A 0.54 0.53 -41.2 0 1 262.57 62.50
  L 263.03 62.30
  Q 264.03 61.86 265.01 62.37
  Q 274.77 67.39 279.93 77.05
  Q 280.57 78.25 280.87 76.84
  Q 280.97 76.39 280.50 75.32
  Q 274.88 62.42 262.42 56.29
  A 0.52 0.52 0.0 0 1 262.40 55.36
  Q 265.93 53.51 268.72 50.74
  Q 271.31 48.17 269.74 44.52
  C 266.75 37.58 259.03 40.48 253.46 41.08
  C 245.16 41.99 241.87 35.18 235.00 32.27"
/>
<path stroke="#80796c" vector-effect="non-scaling-stroke" d="
  M 235.00 32.27
  Q 232.02 31.87 227.97 33.58
  Q 224.92 34.88 223.91 35.10
  C 217.90 36.43 210.81 30.98 205.20 33.90
  C 198.19 37.53 195.85 46.75 186.32 46.27
  A 1.25 1.25 0.0 0 0 185.23 46.82
  C 166.82 74.57 169.76 113.33 200.12 131.65
  Q 208.28 136.58 217.83 139.07"
/>
<path stroke="#ffe9c3" vector-effect="non-scaling-stroke" d="
  M 235.00 32.27
  Q 236.63 39.72 240.36 49.51
  Q 240.69 50.36 239.66 51.06"
/>
<path stroke="#80796c" vector-effect="non-scaling-stroke" d="
  M 239.66 51.06
  Q 238.60 49.48 236.98 48.24
  C 235.16 46.85 232.65 47.58 232.13 49.63
  A 0.95 0.95 0.0 0 0 232.75 50.77
  Q 238.20 52.56 242.83 56.81"
/>
<path stroke="#ffe9c3" vector-effect="non-scaling-stroke" d="
  M 242.83 56.81
  Q 241.51 58.50 241.74 60.26
  Q 244.42 80.77 238.60 100.81"
/>
<path stroke="#80796c" vector-effect="non-scaling-stroke" d="
  M 238.60 100.81
  Q 236.19 94.72 228.39 90.51
  Q 227.26 89.89 227.18 91.18
  Q 227.11 92.20 227.97 93.54
  A 0.72 0.71 -31.8 0 1 227.73 94.53
  Q 208.95 105.81 188.03 98.79
  Q 186.43 98.26 186.49 96.57
  L 186.54 95.26
  Q 186.57 94.62 186.01 94.93
  C 180.09 98.21 180.82 103.95 185.70 107.60
  Q 186.29 108.04 186.62 107.38
  L 187.13 106.38
  Q 187.40 105.84 187.92 106.16
  C 199.20 113.21 210.66 115.24 222.97 109.91
  C 226.11 108.55 229.48 106.25 232.47 104.24
  A 1.71 1.70 70.9 0 1 235.12 105.53
  Q 235.24 107.24 235.95 108.68"
/>
<path stroke="#ffe9c3" vector-effect="non-scaling-stroke" d="
  M 235.95 108.68
  C 232.93 115.00 229.98 121.05 226.00 126.99
  Q 221.98 132.97 217.83 139.07"
/>
<path stroke="#807057" vector-effect="non-scaling-stroke" d="
  M 235.95 108.68
  C 238.36 106.79 238.51 103.80 238.60 100.81"
/>
<path stroke="#807057" vector-effect="non-scaling-stroke" d="
  M 242.83 56.81
  Q 242.45 53.93 239.66 51.06"
/>
<path stroke="#7b793a" vector-effect="non-scaling-stroke" d="
  M 174.74 47.23
  A 0.90 0.90 0.0 0 0 174.82 47.99
  L 177.33 52.15
  A 0.90 0.90 0.0 0 0 178.88 52.13
  L 182.19 46.30
  A 0.90 0.90 0.0 0 0 181.98 45.16
  L 177.89 41.78
  A 0.90 0.90 0.0 0 0 176.47 42.18
  L 174.74 47.23"
/>
<path stroke="#807057" vector-effect="non-scaling-stroke" d="
  M 79.28 107.18
  L 80.41 113.89
  A 0.97 0.96 1.4 0 0 81.16 114.67
  C 87.36 116.08 93.95 118.19 98.70 122.67
  C 105.31 128.90 105.00 135.63 98.41 141.83
  Q 98.00 142.22 98.37 142.66
  C 104.14 149.32 104.10 155.36 98.48 162.30
  Q 98.12 162.75 98.49 163.18
  C 101.55 166.75 100.02 171.67 96.87 174.34
  Q 94.56 176.29 90.59 176.94
  C 81.89 178.36 73.20 176.04 67.25 169.25
  A 1.03 1.03 0.0 0 1 67.35 167.79
  Q 68.27 166.99 69.73 167.86
  C 74.05 170.46 78.95 173.73 83.75 174.47
  C 87.60 175.06 94.79 173.61 96.64 169.52
  C 98.33 165.77 92.21 161.54 89.29 160.16
  C 80.13 155.81 64.75 152.18 55.98 158.69
  C 50.62 162.66 54.73 169.58 58.18 173.12
  C 65.23 180.35 83.20 185.01 92.75 181.98
  C 99.98 179.68 107.29 171.84 110.73 164.76
  C 112.54 161.03 111.93 155.62 111.14 151.66
  Q 111.04 151.15 111.40 150.77
  C 116.57 145.29 119.83 135.62 116.35 128.39
  C 113.80 123.11 111.41 119.67 106.54 116.22
  C 101.22 112.46 96.56 109.47 94.88 102.64"
/>
<path stroke="#80796c" vector-effect="non-scaling-stroke" d="
  M 94.88 102.64
  C 94.31 95.85 98.67 87.87 101.00 81.44
  Q 102.75 76.58 98.23 73.83
  C 93.77 71.11 90.14 70.76 85.31 73.16
  C 76.84 77.35 70.24 87.09 74.55 96.74
  Q 76.75 101.66 79.28 107.18"
/>
<path stroke="#ffe9c3" vector-effect="non-scaling-stroke" d="
  M 94.88 102.64
  Q 86.96 105.78 79.28 107.18"
/>
<path stroke="#80796c" vector-effect="non-scaling-stroke" d="
  M 55.36 135.44
  C 66.25 130.74 83.71 133.51 93.91 139.08
  A 1.93 1.92 -58.9 0 0 96.44 138.45
  C 103.10 128.39 95.67 122.35 86.76 119.47
  Q 73.14 115.07 57.76 116.80
  C 47.99 117.89 50.51 129.61 54.31 135.14
  A 0.86 0.86 0.0 0 0 55.36 135.44"
/>
<path stroke="#7c7753" vector-effect="non-scaling-stroke" d="
  M 246.70 158.05
  C 257.18 151.52 271.50 145.48 263.30 129.70
  Q 263.06 129.23 262.55 129.14
  L 254.10 127.60
  Q 253.40 127.47 253.48 128.17
  C 254.80 139.68 240.80 146.82 231.51 147.76
  C 222.01 148.72 214.51 147.71 207.66 140.57
  C 206.01 138.85 204.77 137.22 202.59 136.04
  Q 198.76 133.98 195.05 131.54
  A 0.78 0.77 -41.6 0 0 194.28 131.50
  L 188.91 134.17
  Q 188.42 134.41 188.59 134.92
  C 193.44 150.44 209.02 156.57 223.62 160.04
  A 1.11 1.10 1.7 0 1 224.45 160.91
  Q 227.94 178.64 230.61 196.60
  C 233.10 213.33 234.74 225.35 234.41 240.12
  C 234.26 246.87 226.43 246.45 221.51 246.18
  C 204.58 245.24 190.56 239.53 175.74 231.85
  A 0.41 0.40 -75.4 0 0 175.15 232.20
  L 174.31 259.25
  A 1.75 1.75 0.0 0 0 174.96 260.65
  C 188.20 271.12 201.99 274.24 219.25 274.19
  C 244.43 274.11 274.39 270.86 290.80 248.94
  Q 291.32 248.25 291.18 247.40
  L 287.71 225.18
  A 0.45 0.44 63.2 0 0 286.96 224.93
  Q 279.50 232.16 270.15 236.92
  C 262.96 240.57 263.09 234.14 262.13 228.98
  C 257.79 205.47 254.19 182.30 246.39 158.91
  Q 246.21 158.36 246.70 158.05"
/>
<path stroke="#1a2d44" vector-effect="non-scaling-stroke" d="
  M 290.46 216.73
  C 288.18 222.07 289.76 226.24 290.66 231.45
  A 0.72 0.71 -9.7 0 0 291.49 232.03
  Q 307.38 229.16 316.46 242.03
  A 0.60 0.59 47.8 0 0 317.39 242.08
  C 329.02 228.88 339.38 214.92 342.53 197.73"
/>
<path stroke="#253e5c" vector-effect="non-scaling-stroke" d="
  M 342.53 197.73
  Q 343.96 193.18 341.12 188.43
  C 328.62 167.54 308.47 150.75 287.39 139.22
  Q 277.82 133.98 267.73 130.54
  Q 266.47 130.11 267.09 131.30
  C 273.86 144.30 262.23 157.51 250.45 161.67
  A 0.87 0.86 72.4 0 0 249.91 162.72
  Q 252.86 172.94 255.64 183.08
  C 259.96 198.87 262.67 215.28 265.65 231.43
  Q 265.86 232.57 266.10 233.15
  A 1.52 1.52 0.0 0 0 268.19 233.93
  Q 278.08 228.94 285.57 221.30
  Q 286.65 220.19 286.49 219.26
  Q 282.69 197.55 278.15 176.50
  Q 277.50 173.48 278.61 176.33
  C 279.88 179.61 283.94 181.66 286.09 183.28
  Q 293.34 188.73 301.46 191.65
  A 1.52 1.52 0.0 0 1 302.14 194.02
  Q 293.95 204.45 290.46 216.73"
/>
<path stroke="#3f6b9f" vector-effect="non-scaling-stroke" d="
  M 342.53 197.73
  Q 327.20 206.90 312.26 212.79
  Q 301.96 216.85 290.46 216.73"
/>
<path stroke="#807057" vector-effect="non-scaling-stroke" d="
  M 114.80 153.00
  C 117.80 165.15 109.53 176.32 99.71 182.36
  Q 98.48 183.12 99.75 183.80
  L 104.19 186.19
  Q 105.56 186.93 106.86 186.08
  C 121.97 176.36 124.69 150.25 123.04 134.26
  Q 122.86 132.52 122.37 131.86
  Q 120.53 129.42 120.75 132.50
  Q 121.51 143.39 115.00 152.01
  A 1.20 1.20 0.0 0 0 114.80 153.00"
/>
<path stroke="#1a2d44" vector-effect="non-scaling-stroke" d="
  M 126.97 142.63
  Q 128.06 154.79 125.49 163.50
  C 122.78 172.71 120.15 182.44 112.01 188.37
  A 0.54 0.54 0.0 0 0 112.21 189.33
  C 123.87 192.09 135.18 191.68 147.19 189.68
  C 157.42 187.97 168.99 184.55 177.05 177.62"
/>
<path stroke="#253e5c" vector-effect="non-scaling-stroke" d="
  M 177.05 177.62
  Q 178.44 176.28 180.73 175.69
  A 0.86 0.85 1.6 0 1 181.76 176.77
  Q 181.05 178.94 179.89 180.46"
/>
<path stroke="#1a2d44" vector-effect="non-scaling-stroke" d="
  M 179.89 180.46
  Q 175.46 184.04 170.33 186.38
  A 0.98 0.98 0.0 0 0 169.80 187.57
  C 173.66 199.85 174.78 213.19 174.92 226.02
  C 174.94 228.12 175.39 228.24 177.03 229.13
  Q 181.75 231.67 186.89 233.59"
/>
<path stroke="#253e5c" vector-effect="non-scaling-stroke" d="
  M 186.89 233.59
  Q 204.02 241.39 223.00 242.03
  C 230.82 242.30 230.62 238.49 230.39 232.25
  Q 229.22 200.60 223.13 169.53
  Q 222.54 166.57 221.90 164.12
  A 1.70 1.70 0.0 0 0 220.46 162.86
  Q 206.52 161.25 196.47 152.70
  C 190.66 147.75 186.80 143.65 186.50 136.18
  A 0.75 0.75 0.0 0 0 185.46 135.52
  C 178.62 138.43 172.03 141.22 164.50 142.17
  Q 159.07 142.86 149.49 142.27
  Q 136.82 141.50 126.55 134.33
  Q 125.11 133.32 125.45 135.04
  L 126.97 142.63"
/>
<path stroke="#3f6b9f" vector-effect="non-scaling-stroke" d="
  M 186.89 233.59
  C 187.37 215.62 186.24 199.30 181.55 182.21
  Q 181.42 181.72 181.03 181.40
  L 179.89 180.46"
/>
<path stroke="#3f6b9f" vector-effect="non-scaling-stroke" d="
  M 177.05 177.62
  Q 148.35 171.24 132.09 148.91
  Q 128.73 144.30 126.97 142.63"
/>
<path stroke="#80796c" vector-effect="non-scaling-stroke" d="
  M 96.65 144.85
  C 90.81 139.21 79.10 136.43 71.25 136.21
  C 65.17 136.04 58.58 135.67 54.05 139.91
  C 49.21 144.45 49.73 150.80 55.66 154.15
  Q 56.09 154.40 56.56 154.22
  C 68.25 149.69 83.93 153.47 94.53 159.17
  Q 94.97 159.40 95.31 159.05
  C 98.99 155.39 100.87 148.94 96.65 144.85"
/>
<path stroke="#807057" vector-effect="non-scaling-stroke" d="
  M 301.56 261.32
  C 302.20 261.20 303.16 261.33 303.65 261.23
  C 308.97 260.24 315.63 256.41 316.32 250.53
  Q 316.75 246.86 314.42 243.84
  C 309.67 237.65 300.53 232.69 292.38 234.75
  Q 291.40 235.00 291.59 235.98
  Q 295.10 253.85 296.78 271.98
  A 1.04 1.03 5.8 0 0 297.52 272.88
  C 301.34 274.00 307.95 274.85 310.47 270.88
  C 311.47 269.30 310.91 267.02 309.00 266.69
  C 305.61 266.10 303.98 264.82 301.36 261.93
  Q 300.92 261.45 301.56 261.32"
/>
<path stroke="#1a2d44" vector-effect="non-scaling-stroke" d="
  M 241.78 292.00
  C 242.55 294.38 240.85 297.41 239.52 299.34
  Q 235.12 305.73 232.65 313.12
  A 1.63 1.63 0.0 0 0 232.62 314.07
  C 236.07 326.32 236.31 339.16 236.13 352.59
  Q 235.87 371.89 236.18 391.58
  A 1.16 1.16 0.0 0 0 237.13 392.71
  L 250.07 395.03"
/>
<path stroke="#253e5c" vector-effect="non-scaling-stroke" d="
  M 250.07 395.03
  Q 262.44 397.13 276.00 395.07
  Q 278.07 394.75 281.77 392.94
  A 1.33 1.32 -2.1 0 0 282.40 392.27
  Q 282.82 391.30 283.09 390.27
  Q 288.82 368.30 292.35 345.90
  C 296.91 316.91 296.00 287.79 292.63 258.73
  Q 292.43 257.00 292.01 255.30
  Q 291.88 254.76 291.53 255.20
  C 276.73 273.93 241.53 279.26 219.51 279.25
  C 202.45 279.25 188.17 275.28 174.52 265.49
  A 0.28 0.28 0.0 0 0 174.07 265.69
  Q 170.65 296.60 163.41 326.98
  C 158.45 347.77 152.65 368.31 148.38 389.26
  C 147.99 391.21 147.84 392.90 149.05 394.64
  C 152.88 400.17 159.22 402.98 165.74 403.84
  C 171.51 404.61 191.06 405.70 194.92 400.64
  C 208.40 382.96 212.52 362.03 218.72 341.25
  Q 225.66 318.03 237.33 296.81
  C 238.16 295.30 239.76 291.97 241.78 292.00"
/>
<path stroke="#3f6b9f" vector-effect="non-scaling-stroke" d="
  M 250.07 395.03
  Q 246.42 365.81 247.85 336.76
  Q 248.67 320.26 249.05 303.75
  Q 249.21 297.20 248.07 290.86
  A 1.88 1.88 0.0 0 0 246.12 289.32
  Q 243.42 289.48 241.78 292.00"
/>
<path stroke="#303030" vector-effect="non-scaling-stroke" d="
  M 252.44 403.97
  A 1.88 1.88 0.0 0 1 255.51 403.38
  Q 259.99 407.92 265.97 409.64
  Q 279.61 413.56 293.75 413.98
  C 298.63 414.13 302.50 413.33 306.07 410.42
  A 1.85 1.85 0.0 0 0 306.13 407.61
  Q 304.85 406.46 303.34 405.72
  C 297.08 402.63 290.61 400.08 284.85 396.21
  A 2.03 2.00 -35.0 0 0 283.19 395.93
  C 268.81 399.77 254.49 398.40 240.05 396.36
  A 0.67 0.67 0.0 0 0 239.28 396.97
  L 238.92 401.62
  A 1.00 1.00 0.0 0 0 239.47 402.59
  Q 242.36 404.01 245.50 404.98
  C 248.44 405.89 251.10 407.14 252.44 403.97"
/>
<path stroke="#303030" vector-effect="non-scaling-stroke" d="
  M 185.23 407.44
  C 176.95 407.99 169.47 409.32 161.39 406.65
  Q 155.80 404.80 150.81 401.44
  Q 150.35 401.13 150.10 401.63
  C 147.44 406.81 142.95 421.35 151.06 423.92
  C 166.89 428.94 177.49 421.25 185.67 408.18
  A 0.48 0.48 0.0 0 0 185.23 407.44"
/>
<path stroke="#80796c" vector-effect="non-scaling-stroke" d="
  M 190.03 52.32
  C 192.30 51.23 193.99 49.83 196.97 50.09
  Q 198.50 50.22 198.04 48.76
  L 197.80 48.01
  A 1.73 1.68 -84.2 0 0 197.03 47.04
  C 194.41 45.51 190.86 50.08 189.59 51.78
  A 0.36 0.36 0.0 0 0 190.03 52.32"
/>
<path stroke="#80796c" vector-effect="non-scaling-stroke" d="
  M 190.7058 72.2482
  A 5.96 3.29 93.6 0 0 194.3635 66.5066
  A 5.96 3.29 93.6 0 0 191.4542 60.3518
  A 5.96 3.29 93.6 0 0 187.7965 66.0934
  A 5.96 3.29 93.6 0 0 190.7058 72.2482"
/>
<path stroke="#80796c" vector-effect="non-scaling-stroke" d="
  M 203.45 79.49
  C 207.60 74.14 210.61 70.05 212.86 63.16
  A 0.77 0.77 0.0 0 0 212.68 62.39
  Q 212.01 61.70 211.40 62.84
  Q 206.94 71.17 200.16 77.69
  C 195.79 81.88 200.27 87.19 203.91 89.75
  A 2.14 2.13 40.9 0 0 206.59 89.56
  Q 207.85 88.39 206.46 86.79
  Q 204.59 84.64 203.21 81.95
  A 2.32 2.30 -39.6 0 1 203.45 79.49"
/>
<path stroke="#80796c" vector-effect="non-scaling-stroke" d="
  M 233.4227 75.6191
  A 6.15 3.34 91.0 0 0 236.8695 69.5283
  A 6.15 3.34 91.0 0 0 233.6373 63.3209
  A 6.15 3.34 91.0 0 0 230.1905 69.4117
  A 6.15 3.34 91.0 0 0 233.4227 75.6191"
/>
<path stroke="#80796c" vector-effect="non-scaling-stroke" d="
  M 210.02 115.80
  A 0.74 0.74 0.0 0 0 209.50 115.64
  L 203.05 116.20
  A 0.74 0.74 0.0 0 0 202.80 117.60
  L 206.81 119.49
  A 0.74 0.74 0.0 0 0 207.32 119.54
  L 211.45 118.43
  A 0.74 0.74 0.0 0 0 211.71 117.14
  L 210.02 115.80"
/>
<path stroke="#807057" vector-effect="non-scaling-stroke" d="
  M 272.61 82.84
  C 271.07 80.11 265.89 73.90 262.66 74.84
  Q 260.85 75.37 262.45 76.37
  Q 266.90 79.15 270.15 83.33
  A 1.65 1.65 0.0 0 0 271.88 83.92
  L 272.19 83.84
  A 0.68 0.68 0.0 0 0 272.61 82.84"
/>
<path stroke="#807057" vector-effect="non-scaling-stroke" d="
  M 266.6859 86.1062
  A 2.98 1.24 43.1 0 0 265.3573 83.1646
  A 2.98 1.24 43.1 0 0 262.3341 82.0338
  A 2.98 1.24 43.1 0 0 263.6627 84.9754
  A 2.98 1.24 43.1 0 0 266.6859 86.1062"
/>
<path stroke="#808080" vector-effect="non-scaling-stroke" d="
  M 185.94 100.82
  C 188.79 105.40 196.78 108.19 201.90 109.03
  C 210.76 110.48 225.91 106.97 232.39 100.31
  A 1.17 1.17 0.0 0 0 231.77 98.35
  Q 230.73 98.15 229.76 98.36
  Q 221.32 100.18 212.96 102.33
  C 204.49 104.51 194.60 102.45 186.43 100.16
  A 0.44 0.44 0.0 0 0 185.94 100.82"
/>
</g>
<path fill="#000000" d="
  M 231.34 319.84
  Q 230.78 317.48 230.03 319.79
  C 220.80 348.11 216.28 378.17 197.56 402.55
  Q 194.97 405.92 191.29 405.96
  A 2.40 2.40 0.0 0 0 189.12 407.40
  Q 181.95 423.95 165.36 428.35
  C 158.32 430.21 154.08 429.39 148.22 425.52
  C 142.21 421.56 141.59 417.40 143.45 410.46
  Q 144.89 405.10 147.37 400.34
  A 1.81 1.80 31.3 0 0 146.80 398.03
  Q 144.25 396.26 144.54 392.74
  Q 145.52 380.52 149.06 368.85
  C 155.59 347.33 161.54 325.64 165.91 303.57
  C 170.54 280.12 172.03 255.62 172.10 231.75
  C 172.14 218.07 171.51 202.77 167.41 189.63
  Q 166.90 187.99 165.33 188.67
  C 144.47 197.71 115.10 197.18 95.58 184.95
  Q 95.14 184.67 94.63 184.77
  C 91.87 185.33 89.18 185.95 86.39 185.88
  C 73.21 185.55 61.40 182.57 52.98 172.53
  Q 46.66 164.99 52.50 157.33
  A 0.92 0.92 0.0 0 0 52.50 156.23
  C 48.48 150.96 45.43 142.94 51.54 137.91
  A 1.24 1.24 0.0 0 0 51.84 136.36
  C 38.92 112.81 57.94 111.55 74.56 113.56
  Q 75.63 113.69 75.74 112.62
  C 76.34 107.00 74.62 102.76 72.08 97.46
  Q 70.48 94.09 70.32 91.78
  C 69.65 81.64 79.51 69.30 89.53 67.85
  C 95.26 67.02 102.80 70.03 104.88 75.96
  C 106.63 80.98 103.37 87.92 101.07 92.80
  C 98.98 97.24 98.26 104.57 101.93 108.68
  Q 102.90 109.76 107.53 112.67
  C 112.30 115.66 115.84 119.14 118.25 123.45
  Q 119.32 125.35 120.86 126.54
  Q 137.98 139.71 159.99 138.78
  Q 172.26 138.27 177.24 136.44
  Q 184.36 133.83 191.14 129.61
  A 0.63 0.62 -40.0 0 0 191.23 128.62
  C 183.51 121.64 177.83 115.22 174.33 104.50
  Q 168.28 85.98 172.72 66.98
  Q 173.31 64.45 177.02 56.26
  Q 177.26 55.73 176.84 55.32
  Q 176.28 54.77 175.31 53.95
  C 171.23 50.49 171.60 43.34 175.09 39.27
  Q 175.87 38.35 175.19 37.03
  C 171.22 29.39 173.56 22.57 180.14 17.59
  A 0.58 0.58 0.0 0 1 181.07 18.01
  C 181.62 25.19 190.89 25.45 195.56 22.79
  C 200.31 20.08 201.19 14.18 206.84 12.18
  C 211.90 10.39 219.17 13.07 223.51 10.63
  C 226.54 8.92 228.89 5.50 230.97 4.69
  Q 242.29 0.30 250.00 8.82
  C 252.22 11.29 258.12 11.09 260.23 11.56
  Q 265.78 12.82 269.75 18.26
  C 271.34 20.45 273.03 24.56 276.35 26.71
  C 279.38 28.68 281.52 31.71 281.07 35.26
  Q 280.78 37.54 282.38 38.04
  C 291.74 40.96 289.32 58.81 288.03 65.70
  Q 287.31 69.58 284.83 75.27
  C 282.65 80.26 279.85 85.74 281.52 90.69
  Q 283.00 95.07 281.49 99.39
  C 278.88 106.83 275.98 111.72 267.11 111.69
  A 2.74 2.72 16.0 0 0 264.80 112.96
  Q 261.06 118.91 256.05 123.83
  A 0.40 0.39 -62.1 0 0 256.25 124.51
  C 272.36 127.46 285.14 133.57 299.27 142.71
  C 315.54 153.23 329.63 164.56 340.22 180.27
  C 342.76 184.04 346.64 190.68 345.96 195.49
  C 343.42 213.73 331.58 231.50 318.91 244.39
  A 1.16 1.15 58.2 0 0 318.64 245.56
  C 319.98 249.53 320.76 252.92 317.60 256.36
  Q 313.98 260.31 308.85 262.32
  A 0.89 0.89 0.0 0 0 308.78 263.95
  C 310.64 264.87 313.20 265.80 313.73 268.23
  C 314.53 271.89 311.57 274.79 308.22 275.68
  Q 303.07 277.05 297.93 276.43
  A 0.70 0.70 0.0 0 0 297.15 277.19
  Q 297.93 286.00 298.55 295.00
  C 300.91 328.82 294.68 357.73 286.08 393.32
  A 0.84 0.83 25.0 0 0 286.40 394.19
  Q 294.54 400.19 304.25 403.21
  C 309.32 404.79 311.11 410.75 307.69 414.61
  C 300.47 422.75 275.23 416.01 266.01 413.26
  Q 259.98 411.47 254.64 408.20
  A 1.20 1.19 -58.1 0 0 253.01 408.58
  C 252.35 409.61 251.43 409.97 250.16 409.81
  C 246.68 409.39 236.92 407.98 236.13 403.77
  Q 235.52 400.53 235.94 397.26
  Q 236.01 396.72 235.64 396.33
  Q 235.05 395.70 234.27 395.30
  Q 233.81 395.06 233.68 394.56
  Q 233.35 393.28 233.37 392.00
  Q 233.69 374.22 233.79 356.43
  C 233.87 340.64 234.16 331.77 231.34 319.84
  Z
  M 246.31 37.38
  C 254.95 41.09 269.23 31.69 274.15 42.16
  C 277.10 48.44 272.42 52.38 268.50 56.29
  Q 268.11 56.69 268.60 56.96
  C 275.06 60.50 279.01 66.02 282.53 72.27
  A 0.58 0.58 0.0 0 0 283.59 72.16
  C 286.42 63.23 289.81 44.40 280.34 38.27
  Q 279.91 37.99 279.84 37.49
  Q 279.28 33.41 276.84 31.40
  Q 270.76 26.42 267.40 21.15
  C 265.06 17.47 263.64 15.81 259.74 14.80
  C 256.19 13.88 252.05 14.06 248.99 12.47
  C 245.46 10.64 240.63 5.99 234.89 6.49
  C 229.78 5.80 226.58 17.75 218.75 15.95
  C 215.07 15.10 206.32 12.74 204.42 16.97
  Q 200.33 26.05 191.34 27.42
  C 186.45 28.17 182.45 26.72 180.16 22.28
  A 0.39 0.38 -42.0 0 0 179.49 22.25
  C 176.25 27.25 176.24 33.56 180.24 38.04
  C 183.29 41.45 190.01 44.69 193.55 39.78
  C 197.84 33.83 202.81 27.47 210.89 28.44
  C 214.18 28.84 216.85 31.33 220.05 31.67
  C 224.63 32.16 225.76 29.35 229.39 28.42
  Q 231.28 27.94 233.25 27.82
  C 241.33 27.36 240.67 34.57 246.31 37.38
  Z
  M 217.83 139.07
  L 220.98 140.02
  Q 225.51 141.38 220.78 141.31
  Q 217.69 141.26 214.24 140.30
  Q 212.28 139.75 213.82 141.08
  C 223.58 149.46 246.81 142.32 249.36 129.56
  A 0.57 0.57 0.0 0 0 248.61 128.91
  Q 245.22 130.10 241.73 129.22
  Q 239.88 128.76 241.70 128.21
  C 250.94 125.41 257.95 117.29 262.32 109.02
  A 1.25 1.25 0.0 0 1 263.44 108.36
  C 267.19 108.44 273.30 107.88 275.85 104.61
  C 278.77 100.84 283.50 89.33 274.52 88.84
  A 0.41 0.40 -69.9 0 1 274.22 88.19
  L 275.75 86.16
  Q 276.08 85.72 276.60 85.91
  L 277.51 86.24
  Q 279.36 86.91 278.23 85.30
  Q 271.48 75.73 261.86 69.05
  A 0.51 0.51 0.0 0 1 261.76 68.30
  L 261.93 68.10
  Q 262.39 67.57 263.03 67.85
  Q 274.08 72.61 278.64 83.58
  A 0.36 0.36 0.0 0 0 279.32 83.54
  L 279.80 81.84
  Q 280.10 80.80 279.51 79.89
  Q 272.87 69.70 262.50 63.45
  A 0.54 0.53 -41.2 0 1 262.57 62.50
  L 263.03 62.30
  Q 264.03 61.86 265.01 62.37
  Q 274.77 67.39 279.93 77.05
  Q 280.57 78.25 280.87 76.84
  Q 280.97 76.39 280.50 75.32
  Q 274.88 62.42 262.42 56.29
  A 0.52 0.52 0.0 0 1 262.40 55.36
  Q 265.93 53.51 268.72 50.74
  Q 271.31 48.17 269.74 44.52
  C 266.75 37.58 259.03 40.48 253.46 41.08
  C 245.16 41.99 241.87 35.18 235.00 32.27
  Q 232.02 31.87 227.97 33.58
  Q 224.92 34.88 223.91 35.10
  C 217.90 36.43 210.81 30.98 205.20 33.90
  C 198.19 37.53 195.85 46.75 186.32 46.27
  A 1.25 1.25 0.0 0 0 185.23 46.82
  C 166.82 74.57 169.76 113.33 200.12 131.65
  Q 208.28 136.58 217.83 139.07
  Z
  M 174.74 47.23
  A 0.90 0.90 0.0 0 0 174.82 47.99
  L 177.33 52.15
  A 0.90 0.90 0.0 0 0 178.88 52.13
  L 182.19 46.30
  A 0.90 0.90 0.0 0 0 181.98 45.16
  L 177.89 41.78
  A 0.90 0.90 0.0 0 0 176.47 42.18
  L 174.74 47.23
  Z
  M 79.28 107.18
  L 80.41 113.89
  A 0.97 0.96 1.4 0 0 81.16 114.67
  C 87.36 116.08 93.95 118.19 98.70 122.67
  C 105.31 128.90 105.00 135.63 98.41 141.83
  Q 98.00 142.22 98.37 142.66
  C 104.14 149.32 104.10 155.36 98.48 162.30
  Q 98.12 162.75 98.49 163.18
  C 101.55 166.75 100.02 171.67 96.87 174.34
  Q 94.56 176.29 90.59 176.94
  C 81.89 178.36 73.20 176.04 67.25 169.25
  A 1.03 1.03 0.0 0 1 67.35 167.79
  Q 68.27 166.99 69.73 167.86
  C 74.05 170.46 78.95 173.73 83.75 174.47
  C 87.60 175.06 94.79 173.61 96.64 169.52
  C 98.33 165.77 92.21 161.54 89.29 160.16
  C 80.13 155.81 64.75 152.18 55.98 158.69
  C 50.62 162.66 54.73 169.58 58.18 173.12
  C 65.23 180.35 83.20 185.01 92.75 181.98
  C 99.98 179.68 107.29 171.84 110.73 164.76
  C 112.54 161.03 111.93 155.62 111.14 151.66
  Q 111.04 151.15 111.40 150.77
  C 116.57 145.29 119.83 135.62 116.35 128.39
  C 113.80 123.11 111.41 119.67 106.54 116.22
  C 101.22 112.46 96.56 109.47 94.88 102.64
  C 94.31 95.85 98.67 87.87 101.00 81.44
  Q 102.75 76.58 98.23 73.83
  C 93.77 71.11 90.14 70.76 85.31 73.16
  C 76.84 77.35 70.24 87.09 74.55 96.74
  Q 76.75 101.66 79.28 107.18
  Z
  M 55.36 135.44
  C 66.25 130.74 83.71 133.51 93.91 139.08
  A 1.93 1.92 -58.9 0 0 96.44 138.45
  C 103.10 128.39 95.67 122.35 86.76 119.47
  Q 73.14 115.07 57.76 116.80
  C 47.99 117.89 50.51 129.61 54.31 135.14
  A 0.86 0.86 0.0 0 0 55.36 135.44
  Z
  M 246.70 158.05
  C 257.18 151.52 271.50 145.48 263.30 129.70
  Q 263.06 129.23 262.55 129.14
  L 254.10 127.60
  Q 253.40 127.47 253.48 128.17
  C 254.80 139.68 240.80 146.82 231.51 147.76
  C 222.01 148.72 214.51 147.71 207.66 140.57
  C 206.01 138.85 204.77 137.22 202.59 136.04
  Q 198.76 133.98 195.05 131.54
  A 0.78 0.77 -41.6 0 0 194.28 131.50
  L 188.91 134.17
  Q 188.42 134.41 188.59 134.92
  C 193.44 150.44 209.02 156.57 223.62 160.04
  A 1.11 1.10 1.7 0 1 224.45 160.91
  Q 227.94 178.64 230.61 196.60
  C 233.10 213.33 234.74 225.35 234.41 240.12
  C 234.26 246.87 226.43 246.45 221.51 246.18
  C 204.58 245.24 190.56 239.53 175.74 231.85
  A 0.41 0.40 -75.4 0 0 175.15 232.20
  L 174.31 259.25
  A 1.75 1.75 0.0 0 0 174.96 260.65
  C 188.20 271.12 201.99 274.24 219.25 274.19
  C 244.43 274.11 274.39 270.86 290.80 248.94
  Q 291.32 248.25 291.18 247.40
  L 287.71 225.18
  A 0.45 0.44 63.2 0 0 286.96 224.93
  Q 279.50 232.16 270.15 236.92
  C 262.96 240.57 263.09 234.14 262.13 228.98
  C 257.79 205.47 254.19 182.30 246.39 158.91
  Q 246.21 158.36 246.70 158.05
  Z
  M 290.46 216.73
  C 288.18 222.07 289.76 226.24 290.66 231.45
  A 0.72 0.71 -9.7 0 0 291.49 232.03
  Q 307.38 229.16 316.46 242.03
  A 0.60 0.59 47.8 0 0 317.39 242.08
  C 329.02 228.88 339.38 214.92 342.53 197.73
  Q 343.96 193.18 341.12 188.43
  C 328.62 167.54 308.47 150.75 287.39 139.22
  Q 277.82 133.98 267.73 130.54
  Q 266.47 130.11 267.09 131.30
  C 273.86 144.30 262.23 157.51 250.45 161.67
  A 0.87 0.86 72.4 0 0 249.91 162.72
  Q 252.86 172.94 255.64 183.08
  C 259.96 198.87 262.67 215.28 265.65 231.43
  Q 265.86 232.57 266.10 233.15
  A 1.52 1.52 0.0 0 0 268.19 233.93
  Q 278.08 228.94 285.57 221.30
  Q 286.65 220.19 286.49 219.26
  Q 282.69 197.55 278.15 176.50
  Q 277.50 173.48 278.61 176.33
  C 279.88 179.61 283.94 181.66 286.09 183.28
  Q 293.34 188.73 301.46 191.65
  A 1.52 1.52 0.0 0 1 302.14 194.02
  Q 293.95 204.45 290.46 216.73
  Z
  M 114.80 153.00
  C 117.80 165.15 109.53 176.32 99.71 182.36
  Q 98.48 183.12 99.75 183.80
  L 104.19 186.19
  Q 105.56 186.93 106.86 186.08
  C 121.97 176.36 124.69 150.25 123.04 134.26
  Q 122.86 132.52 122.37 131.86
  Q 120.53 129.42 120.75 132.50
  Q 121.51 143.39 115.00 152.01
  A 1.20 1.20 0.0 0 0 114.80 153.00
  Z
  M 126.97 142.63
  Q 128.06 154.79 125.49 163.50
  C 122.78 172.71 120.15 182.44 112.01 188.37
  A 0.54 0.54 0.0 0 0 112.21 189.33
  C 123.87 192.09 135.18 191.68 147.19 189.68
  C 157.42 187.97 168.99 184.55 177.05 177.62
  Q 178.44 176.28 180.73 175.69
  A 0.86 0.85 1.6 0 1 181.76 176.77
  Q 181.05 178.94 179.89 180.46
  Q 175.46 184.04 170.33 186.38
  A 0.98 0.98 0.0 0 0 169.80 187.57
  C 173.66 199.85 174.78 213.19 174.92 226.02
  C 174.94 228.12 175.39 228.24 177.03 229.13
  Q 181.75 231.67 186.89 233.59
  Q 204.02 241.39 223.00 242.03
  C 230.82 242.30 230.62 238.49 230.39 232.25
  Q 229.22 200.60 223.13 169.53
  Q 222.54 166.57 221.90 164.12
  A 1.70 1.70 0.0 0 0 220.46 162.86
  Q 206.52 161.25 196.47 152.70
  C 190.66 147.75 186.80 143.65 186.50 136.18
  A 0.75 0.75 0.0 0 0 185.46 135.52
  C 178.62 138.43 172.03 141.22 164.50 142.17
  Q 159.07 142.86 149.49 142.27
  Q 136.82 141.50 126.55 134.33
  Q 125.11 133.32 125.45 135.04
  L 126.97 142.63
  Z
  M 96.65 144.85
  C 90.81 139.21 79.10 136.43 71.25 136.21
  C 65.17 136.04 58.58 135.67 54.05 139.91
  C 49.21 144.45 49.73 150.80 55.66 154.15
  Q 56.09 154.40 56.56 154.22
  C 68.25 149.69 83.93 153.47 94.53 159.17
  Q 94.97 159.40 95.31 159.05
  C 98.99 155.39 100.87 148.94 96.65 144.85
  Z
  M 280.71 183.06
  L 287.28 212.99
  Q 287.85 215.62 288.53 213.01
  Q 291.30 202.42 298.15 193.88
  A 0.86 0.86 0.0 0 0 297.86 192.58
  Q 289.21 188.31 281.46 182.58
  A 0.48 0.47 12.1 0 0 280.71 183.06
  Z
  M 301.56 261.32
  C 302.20 261.20 303.16 261.33 303.65 261.23
  C 308.97 260.24 315.63 256.41 316.32 250.53
  Q 316.75 246.86 314.42 243.84
  C 309.67 237.65 300.53 232.69 292.38 234.75
  Q 291.40 235.00 291.59 235.98
  Q 295.10 253.85 296.78 271.98
  A 1.04 1.03 5.8 0 0 297.52 272.88
  C 301.34 274.00 307.95 274.85 310.47 270.88
  C 311.47 269.30 310.91 267.02 309.00 266.69
  C 305.61 266.10 303.98 264.82 301.36 261.93
  Q 300.92 261.45 301.56 261.32
  Z
  M 241.78 292.00
  C 242.55 294.38 240.85 297.41 239.52 299.34
  Q 235.12 305.73 232.65 313.12
  A 1.63 1.63 0.0 0 0 232.62 314.07
  C 236.07 326.32 236.31 339.16 236.13 352.59
  Q 235.87 371.89 236.18 391.58
  A 1.16 1.16 0.0 0 0 237.13 392.71
  L 250.07 395.03
  Q 262.44 397.13 276.00 395.07
  Q 278.07 394.75 281.77 392.94
  A 1.33 1.32 -2.1 0 0 282.40 392.27
  Q 282.82 391.30 283.09 390.27
  Q 288.82 368.30 292.35 345.90
  C 296.91 316.91 296.00 287.79 292.63 258.73
  Q 292.43 257.00 292.01 255.30
  Q 291.88 254.76 291.53 255.20
  C 276.73 273.93 241.53 279.26 219.51 279.25
  C 202.45 279.25 188.17 275.28 174.52 265.49
  A 0.28 0.28 0.0 0 0 174.07 265.69
  Q 170.65 296.60 163.41 326.98
  C 158.45 347.77 152.65 368.31 148.38 389.26
  C 147.99 391.21 147.84 392.90 149.05 394.64
  C 152.88 400.17 159.22 402.98 165.74 403.84
  C 171.51 404.61 191.06 405.70 194.92 400.64
  C 208.40 382.96 212.52 362.03 218.72 341.25
  Q 225.66 318.03 237.33 296.81
  C 238.16 295.30 239.76 291.97 241.78 292.00
  Z
  M 252.44 403.97
  A 1.88 1.88 0.0 0 1 255.51 403.38
  Q 259.99 407.92 265.97 409.64
  Q 279.61 413.56 293.75 413.98
  C 298.63 414.13 302.50 413.33 306.07 410.42
  A 1.85 1.85 0.0 0 0 306.13 407.61
  Q 304.85 406.46 303.34 405.72
  C 297.08 402.63 290.61 400.08 284.85 396.21
  A 2.03 2.00 -35.0 0 0 283.19 395.93
  C 268.81 399.77 254.49 398.40 240.05 396.36
  A 0.67 0.67 0.0 0 0 239.28 396.97
  L 238.92 401.62
  A 1.00 1.00 0.0 0 0 239.47 402.59
  Q 242.36 404.01 245.50 404.98
  C 248.44 405.89 251.10 407.14 252.44 403.97
  Z
  M 185.23 407.44
  C 176.95 407.99 169.47 409.32 161.39 406.65
  Q 155.80 404.80 150.81 401.44
  Q 150.35 401.13 150.10 401.63
  C 147.44 406.81 142.95 421.35 151.06 423.92
  C 166.89 428.94 177.49 421.25 185.67 408.18
  A 0.48 0.48 0.0 0 0 185.23 407.44
  Z"
/>
<path fill="#f6f174" d="
  M 234.89 6.49
  Q 244.47 16.15 245.87 27.00
  Q 246.14 29.12 246.31 37.38
  C 240.67 34.57 241.33 27.36 233.25 27.82
  Q 231.28 27.94 229.39 28.42
  C 225.76 29.35 224.63 32.16 220.05 31.67
  C 216.85 31.33 214.18 28.84 210.89 28.44
  C 202.81 27.47 197.84 33.83 193.55 39.78
  C 190.01 44.69 183.29 41.45 180.24 38.04
  C 176.24 33.56 176.25 27.25 179.49 22.25
  A 0.39 0.38 -42.0 0 1 180.16 22.28
  C 182.45 26.72 186.45 28.17 191.34 27.42
  Q 200.33 26.05 204.42 16.97
  C 206.32 12.74 215.07 15.10 218.75 15.95
  C 226.58 17.75 229.78 5.80 234.89 6.49
  Z"
/>
<path fill="#dad64f" d="
  M 234.89 6.49
  C 240.63 5.99 245.46 10.64 248.99 12.47
  C 252.05 14.06 256.19 13.88 259.74 14.80
  C 263.64 15.81 265.06 17.47 267.40 21.15
  Q 270.76 26.42 276.84 31.40
  Q 279.28 33.41 279.84 37.49
  Q 279.91 37.99 280.34 38.27
  C 289.81 44.40 286.42 63.23 283.59 72.16
  A 0.58 0.58 0.0 0 1 282.53 72.27
  C 279.01 66.02 275.06 60.50 268.60 56.96
  Q 268.11 56.69 268.50 56.29
  C 272.42 52.38 277.10 48.44 274.15 42.16
  C 269.23 31.69 254.95 41.09 246.31 37.38
  Q 246.14 29.12 245.87 27.00
  Q 244.47 16.15 234.89 6.49
  Z"
/>
<path fill="#fff2d8" d="
  M 235.00 32.27
  Q 236.63 39.72 240.36 49.51
  Q 240.69 50.36 239.66 51.06
  Q 238.60 49.48 236.98 48.24
  C 235.16 46.85 232.65 47.58 232.13 49.63
  A 0.95 0.95 0.0 0 0 232.75 50.77
  Q 238.20 52.56 242.83 56.81
  Q 241.51 58.50 241.74 60.26
  Q 244.42 80.77 238.60 100.81
  Q 236.19 94.72 228.39 90.51
  Q 227.26 89.89 227.18 91.18
  Q 227.11 92.20 227.97 93.54
  A 0.72 0.71 -31.8 0 1 227.73 94.53
  Q 208.95 105.81 188.03 98.79
  Q 186.43 98.26 186.49 96.57
  L 186.54 95.26
  Q 186.57 94.62 186.01 94.93
  C 180.09 98.21 180.82 103.95 185.70 107.60
  Q 186.29 108.04 186.62 107.38
  L 187.13 106.38
  Q 187.40 105.84 187.92 106.16
  C 199.20 113.21 210.66 115.24 222.97 109.91
  C 226.11 108.55 229.48 106.25 232.47 104.24
  A 1.71 1.70 70.9 0 1 235.12 105.53
  Q 235.24 107.24 235.95 108.68
  C 232.93 115.00 229.98 121.05 226.00 126.99
  Q 221.98 132.97 217.83 139.07
  Q 208.28 136.58 200.12 131.65
  C 169.76 113.33 166.82 74.57 185.23 46.82
  A 1.25 1.25 0.0 0 1 186.32 46.27
  C 195.85 46.75 198.19 37.53 205.20 33.90
  C 210.81 30.98 217.90 36.43 223.91 35.10
  Q 224.92 34.88 227.97 33.58
  Q 232.02 31.87 235.00 32.27
  Z
  M 190.03 52.32
  C 192.30 51.23 193.99 49.83 196.97 50.09
  Q 198.50 50.22 198.04 48.76
  L 197.80 48.01
  A 1.73 1.68 -84.2 0 0 197.03 47.04
  C 194.41 45.51 190.86 50.08 189.59 51.78
  A 0.36 0.36 0.0 0 0 190.03 52.32
  Z
  M 190.7058 72.2482
  A 5.96 3.29 93.6 0 0 194.3635 66.5066
  A 5.96 3.29 93.6 0 0 191.4542 60.3518
  A 5.96 3.29 93.6 0 0 187.7965 66.0934
  A 5.96 3.29 93.6 0 0 190.7058 72.2482
  Z
  M 203.45 79.49
  C 207.60 74.14 210.61 70.05 212.86 63.16
  A 0.77 0.77 0.0 0 0 212.68 62.39
  Q 212.01 61.70 211.40 62.84
  Q 206.94 71.17 200.16 77.69
  C 195.79 81.88 200.27 87.19 203.91 89.75
  A 2.14 2.13 40.9 0 0 206.59 89.56
  Q 207.85 88.39 206.46 86.79
  Q 204.59 84.64 203.21 81.95
  A 2.32 2.30 -39.6 0 1 203.45 79.49
  Z
  M 233.4227 75.6191
  A 6.15 3.34 91.0 0 0 236.8695 69.5283
  A 6.15 3.34 91.0 0 0 233.6373 63.3209
  A 6.15 3.34 91.0 0 0 230.1905 69.4117
  A 6.15 3.34 91.0 0 0 233.4227 75.6191
  Z
  M 210.02 115.80
  A 0.74 0.74 0.0 0 0 209.50 115.64
  L 203.05 116.20
  A 0.74 0.74 0.0 0 0 202.80 117.60
  L 206.81 119.49
  A 0.74 0.74 0.0 0 0 207.32 119.54
  L 211.45 118.43
  A 0.74 0.74 0.0 0 0 211.71 117.14
  L 210.02 115.80
  Z"
/>
<path fill="#ffdfae" d="
  M 235.00 32.27
  C 241.87 35.18 245.16 41.99 253.46 41.08
  C 259.03 40.48 266.75 37.58 269.74 44.52
  Q 271.31 48.17 268.72 50.74
  Q 265.93 53.51 262.40 55.36
  A 0.52 0.52 0.0 0 0 262.42 56.29
  Q 274.88 62.42 280.50 75.32
  Q 280.97 76.39 280.87 76.84
  Q 280.57 78.25 279.93 77.05
  Q 274.77 67.39 265.01 62.37
  Q 264.03 61.86 263.03 62.30
  L 262.57 62.50
  A 0.54 0.53 -41.2 0 0 262.50 63.45
  Q 272.87 69.70 279.51 79.89
  Q 280.10 80.80 279.80 81.84
  L 279.32 83.54
  A 0.36 0.36 0.0 0 1 278.64 83.58
  Q 274.08 72.61 263.03 67.85
  Q 262.39 67.57 261.93 68.10
  L 261.76 68.30
  A 0.51 0.51 0.0 0 0 261.86 69.05
  Q 271.48 75.73 278.23 85.30
  Q 279.36 86.91 277.51 86.24
  L 276.60 85.91
  Q 276.08 85.72 275.75 86.16
  L 274.22 88.19
  A 0.41 0.40 -69.9 0 0 274.52 88.84
  C 283.50 89.33 278.77 100.84 275.85 104.61
  C 273.30 107.88 267.19 108.44 263.44 108.36
  A 1.25 1.25 0.0 0 0 262.32 109.02
  C 257.95 117.29 250.94 125.41 241.70 128.21
  Q 239.88 128.76 241.73 129.22
  Q 245.22 130.10 248.61 128.91
  A 0.57 0.57 0.0 0 1 249.36 129.56
  C 246.81 142.32 223.58 149.46 213.82 141.08
  Q 212.28 139.75 214.24 140.30
  Q 217.69 141.26 220.78 141.31
  Q 225.51 141.38 220.98 140.02
  L 217.83 139.07
  Q 221.98 132.97 226.00 126.99
  C 229.98 121.05 232.93 115.00 235.95 108.68
  C 238.36 106.79 238.51 103.80 238.60 100.81
  Q 244.42 80.77 241.74 60.26
  Q 241.51 58.50 242.83 56.81
  Q 242.45 53.93 239.66 51.06
  Q 240.69 50.36 240.36 49.51
  Q 236.63 39.72 235.00 32.27
  Z
  M 272.61 82.84
  C 271.07 80.11 265.89 73.90 262.66 74.84
  Q 260.85 75.37 262.45 76.37
  Q 266.90 79.15 270.15 83.33
  A 1.65 1.65 0.0 0 0 271.88 83.92
  L 272.19 83.84
  A 0.68 0.68 0.0 0 0 272.61 82.84
  Z
  M 266.6859 86.1062
  A 2.98 1.24 43.1 0 0 265.3573 83.1646
  A 2.98 1.24 43.1 0 0 262.3341 82.0338
  A 2.98 1.24 43.1 0 0 263.6627 84.9754
  A 2.98 1.24 43.1 0 0 266.6859 86.1062
  Z"
/>
<path fill="#f6f174" d="
  M 174.74 47.23
  L 176.47 42.18
  A 0.90 0.90 0.0 0 1 177.89 41.78
  L 181.98 45.16
  A 0.90 0.90 0.0 0 1 182.19 46.30
  L 178.88 52.13
  A 0.90 0.90 0.0 0 1 177.33 52.15
  L 174.82 47.99
  A 0.90 0.90 0.0 0 1 174.74 47.23
  Z"
/>
<path fill="#000000" d="
  M 196.97 50.09
  C 193.99 49.83 192.30 51.23 190.03 52.32
  A 0.36 0.36 0.0 0 1 189.59 51.78
  C 190.86 50.08 194.41 45.51 197.03 47.04
  A 1.73 1.68 -84.2 0 1 197.80 48.01
  L 198.04 48.76
  Q 198.50 50.22 196.97 50.09
  Z"
/>
<path fill="#000000" d="
  M 239.66 51.06
  Q 242.45 53.93 242.83 56.81
  Q 238.20 52.56 232.75 50.77
  A 0.95 0.95 0.0 0 1 232.13 49.63
  C 232.65 47.58 235.16 46.85 236.98 48.24
  Q 238.60 49.48 239.66 51.06
  Z"
/>
<ellipse fill="#000000" cx="0.00" cy="0.00" transform="translate(191.08,66.30) rotate(93.6)" rx="5.96" ry="3.29"/>
<path fill="#000000" d="
  M 203.45 79.49
  A 2.32 2.30 -39.6 0 0 203.21 81.95
  Q 204.59 84.64 206.46 86.79
  Q 207.85 88.39 206.59 89.56
  A 2.14 2.13 40.9 0 1 203.91 89.75
  C 200.27 87.19 195.79 81.88 200.16 77.69
  Q 206.94 71.17 211.40 62.84
  Q 212.01 61.70 212.68 62.39
  A 0.77 0.77 0.0 0 1 212.86 63.16
  C 210.61 70.05 207.60 74.14 203.45 79.49
  Z"
/>
<ellipse fill="#000000" cx="0.00" cy="0.00" transform="translate(233.53,69.47) rotate(91.0)" rx="6.15" ry="3.34"/>
<path fill="#fff2d8" d="
  M 94.88 102.64
  Q 86.96 105.78 79.28 107.18
  Q 76.75 101.66 74.55 96.74
  C 70.24 87.09 76.84 77.35 85.31 73.16
  C 90.14 70.76 93.77 71.11 98.23 73.83
  Q 102.75 76.58 101.00 81.44
  C 98.67 87.87 94.31 95.85 94.88 102.64
  Z"
/>
<path fill="#000000" d="
  M 262.66 74.84
  C 265.89 73.90 271.07 80.11 272.61 82.84
  A 0.68 0.68 0.0 0 1 272.19 83.84
  L 271.88 83.92
  A 1.65 1.65 0.0 0 1 270.15 83.33
  Q 266.90 79.15 262.45 76.37
  Q 260.85 75.37 262.66 74.84
  Z"
/>
<ellipse fill="#000000" cx="0.00" cy="0.00" transform="translate(264.51,84.07) rotate(43.1)" rx="2.98" ry="1.24"/>
<path fill="#000000" d="
  M 238.60 100.81
  C 238.51 103.80 238.36 106.79 235.95 108.68
  Q 235.24 107.24 235.12 105.53
  A 1.71 1.70 70.9 0 0 232.47 104.24
  C 229.48 106.25 226.11 108.55 222.97 109.91
  C 210.66 115.24 199.20 113.21 187.92 106.16
  Q 187.40 105.84 187.13 106.38
  L 186.62 107.38
  Q 186.29 108.04 185.70 107.60
  C 180.82 103.95 180.09 98.21 186.01 94.93
  Q 186.57 94.62 186.54 95.26
  L 186.49 96.57
  Q 186.43 98.26 188.03 98.79
  Q 208.95 105.81 227.73 94.53
  A 0.72 0.71 -31.8 0 0 227.97 93.54
  Q 227.11 92.20 227.18 91.18
  Q 227.26 89.89 228.39 90.51
  Q 236.19 94.72 238.60 100.81
  Z
  M 185.94 100.82
  C 188.79 105.40 196.78 108.19 201.90 109.03
  C 210.76 110.48 225.91 106.97 232.39 100.31
  A 1.17 1.17 0.0 0 0 231.77 98.35
  Q 230.73 98.15 229.76 98.36
  Q 221.32 100.18 212.96 102.33
  C 204.49 104.51 194.60 102.45 186.43 100.16
  A 0.44 0.44 0.0 0 0 185.94 100.82
  Z"
/>
<path fill="#ffffff" d="
  M 201.90 109.03
  C 196.78 108.19 188.79 105.40 185.94 100.82
  A 0.44 0.44 0.0 0 1 186.43 100.16
  C 194.60 102.45 204.49 104.51 212.96 102.33
  Q 221.32 100.18 229.76 98.36
  Q 230.73 98.15 231.77 98.35
  A 1.17 1.17 0.0 0 1 232.39 100.31
  C 225.91 106.97 210.76 110.48 201.90 109.03
  Z"
/>
<path fill="#ffdfae" d="
  M 94.88 102.64
  C 96.56 109.47 101.22 112.46 106.54 116.22
  C 111.41 119.67 113.80 123.11 116.35 128.39
  C 119.83 135.62 116.57 145.29 111.40 150.77
  Q 111.04 151.15 111.14 151.66
  C 111.93 155.62 112.54 161.03 110.73 164.76
  C 107.29 171.84 99.98 179.68 92.75 181.98
  C 83.20 185.01 65.23 180.35 58.18 173.12
  C 54.73 169.58 50.62 162.66 55.98 158.69
  C 64.75 152.18 80.13 155.81 89.29 160.16
  C 92.21 161.54 98.33 165.77 96.64 169.52
  C 94.79 173.61 87.60 175.06 83.75 174.47
  C 78.95 173.73 74.05 170.46 69.73 167.86
  Q 68.27 166.99 67.35 167.79
  A 1.03 1.03 0.0 0 0 67.25 169.25
  C 73.20 176.04 81.89 178.36 90.59 176.94
  Q 94.56 176.29 96.87 174.34
  C 100.02 171.67 101.55 166.75 98.49 163.18
  Q 98.12 162.75 98.48 162.30
  C 104.10 155.36 104.14 149.32 98.37 142.66
  Q 98.00 142.22 98.41 141.83
  C 105.00 135.63 105.31 128.90 98.70 122.67
  C 93.95 118.19 87.36 116.08 81.16 114.67
  A 0.97 0.96 1.4 0 1 80.41 113.89
  L 79.28 107.18
  Q 86.96 105.78 94.88 102.64
  Z"
/>
<path fill="#000000" d="
  M 210.02 115.80
  L 211.71 117.14
  A 0.74 0.74 0.0 0 1 211.45 118.43
  L 207.32 119.54
  A 0.74 0.74 0.0 0 1 206.81 119.49
  L 202.80 117.60
  A 0.74 0.74 0.0 0 1 203.05 116.20
  L 209.50 115.64
  A 0.74 0.74 0.0 0 1 210.02 115.80
  Z"
/>
<path fill="#fff2d8" d="
  M 93.91 139.08
  C 83.71 133.51 66.25 130.74 55.36 135.44
  A 0.86 0.86 0.0 0 1 54.31 135.14
  C 50.51 129.61 47.99 117.89 57.76 116.80
  Q 73.14 115.07 86.76 119.47
  C 95.67 122.35 103.10 128.39 96.44 138.45
  A 1.93 1.92 -58.9 0 1 93.91 139.08
  Z"
/>
<path fill="#f7eda5" d="
  M 246.39 158.91
  C 254.19 182.30 257.79 205.47 262.13 228.98
  C 263.09 234.14 262.96 240.57 270.15 236.92
  Q 279.50 232.16 286.96 224.93
  A 0.45 0.44 63.2 0 1 287.71 225.18
  L 291.18 247.40
  Q 291.32 248.25 290.80 248.94
  C 274.39 270.86 244.43 274.11 219.25 274.19
  C 201.99 274.24 188.20 271.12 174.96 260.65
  A 1.75 1.75 0.0 0 1 174.31 259.25
  L 175.15 232.20
  A 0.41 0.40 -75.4 0 1 175.74 231.85
  C 190.56 239.53 204.58 245.24 221.51 246.18
  C 226.43 246.45 234.26 246.87 234.41 240.12
  C 234.74 225.35 233.10 213.33 230.61 196.60
  Q 227.94 178.64 224.45 160.91
  A 1.11 1.10 1.7 0 0 223.62 160.04
  C 209.02 156.57 193.44 150.44 188.59 134.92
  Q 188.42 134.41 188.91 134.17
  L 194.28 131.50
  A 0.78 0.77 -41.6 0 1 195.05 131.54
  Q 198.76 133.98 202.59 136.04
  C 204.77 137.22 206.01 138.85 207.66 140.57
  C 214.51 147.71 222.01 148.72 231.51 147.76
  C 240.80 146.82 254.80 139.68 253.48 128.17
  Q 253.40 127.47 254.10 127.60
  L 262.55 129.14
  Q 263.06 129.23 263.30 129.70
  C 271.50 145.48 257.18 151.52 246.70 158.05
  Q 246.21 158.36 246.39 158.91
  Z"
/>
<path fill="#4a7cb7" d="
  M 342.53 197.73
  Q 327.20 206.90 312.26 212.79
  Q 301.96 216.85 290.46 216.73
  Q 293.95 204.45 302.14 194.02
  A 1.52 1.52 0.0 0 0 301.46 191.65
  Q 293.34 188.73 286.09 183.28
  C 283.94 181.66 279.88 179.61 278.61 176.33
  Q 277.50 173.48 278.15 176.50
  Q 282.69 197.55 286.49 219.26
  Q 286.65 220.19 285.57 221.30
  Q 278.08 228.94 268.19 233.93
  A 1.52 1.52 0.0 0 1 266.10 233.15
  Q 265.86 232.57 265.65 231.43
  C 262.67 215.28 259.96 198.87 255.64 183.08
  Q 252.86 172.94 249.91 162.72
  A 0.87 0.86 72.4 0 1 250.45 161.67
  C 262.23 157.51 273.86 144.30 267.09 131.30
  Q 266.47 130.11 267.73 130.54
  Q 277.82 133.98 287.39 139.22
  C 308.47 150.75 328.62 167.54 341.12 188.43
  Q 343.96 193.18 342.53 197.73
  Z"
/>
<path fill="#ffdfae" d="
  M 99.71 182.36
  C 109.53 176.32 117.80 165.15 114.80 153.00
  A 1.20 1.20 0.0 0 1 115.00 152.01
  Q 121.51 143.39 120.75 132.50
  Q 120.53 129.42 122.37 131.86
  Q 122.86 132.52 123.04 134.26
  C 124.69 150.25 121.97 176.36 106.86 186.08
  Q 105.56 186.93 104.19 186.19
  L 99.75 183.80
  Q 98.48 183.12 99.71 182.36
  Z"
/>
<path fill="#4a7cb7" d="
  M 186.89 233.59
  C 187.37 215.62 186.24 199.30 181.55 182.21
  Q 181.42 181.72 181.03 181.40
  L 179.89 180.46
  Q 181.05 178.94 181.76 176.77
  A 0.86 0.85 1.6 0 0 180.73 175.69
  Q 178.44 176.28 177.05 177.62
  Q 148.35 171.24 132.09 148.91
  Q 128.73 144.30 126.97 142.63
  L 125.45 135.04
  Q 125.11 133.32 126.55 134.33
  Q 136.82 141.50 149.49 142.27
  Q 159.07 142.86 164.50 142.17
  C 172.03 141.22 178.62 138.43 185.46 135.52
  A 0.75 0.75 0.0 0 1 186.50 136.18
  C 186.80 143.65 190.66 147.75 196.47 152.70
  Q 206.52 161.25 220.46 162.86
  A 1.70 1.70 0.0 0 1 221.90 164.12
  Q 222.54 166.57 223.13 169.53
  Q 229.22 200.60 230.39 232.25
  C 230.62 238.49 230.82 242.30 223.00 242.03
  Q 204.02 241.39 186.89 233.59
  Z"
/>
<path fill="#fff2d8" d="
  M 71.25 136.21
  C 79.10 136.43 90.81 139.21 96.65 144.85
  C 100.87 148.94 98.99 155.39 95.31 159.05
  Q 94.97 159.40 94.53 159.17
  C 83.93 153.47 68.25 149.69 56.56 154.22
  Q 56.09 154.40 55.66 154.15
  C 49.73 150.80 49.21 144.45 54.05 139.91
  C 58.58 135.67 65.17 136.04 71.25 136.21
  Z"
/>
<path fill="#345a87" d="
  M 126.97 142.63
  Q 128.73 144.30 132.09 148.91
  Q 148.35 171.24 177.05 177.62
  C 168.99 184.55 157.42 187.97 147.19 189.68
  C 135.18 191.68 123.87 192.09 112.21 189.33
  A 0.54 0.54 0.0 0 1 112.01 188.37
  C 120.15 182.44 122.78 172.71 125.49 163.50
  Q 128.06 154.79 126.97 142.63
  Z"
/>
<path fill="#345a87" d="
  M 179.89 180.46
  L 181.03 181.40
  Q 181.42 181.72 181.55 182.21
  C 186.24 199.30 187.37 215.62 186.89 233.59
  Q 181.75 231.67 177.03 229.13
  C 175.39 228.24 174.94 228.12 174.92 226.02
  C 174.78 213.19 173.66 199.85 169.80 187.57
  A 0.98 0.98 0.0 0 1 170.33 186.38
  Q 175.46 184.04 179.89 180.46
  Z"
/>
<path fill="#345a87" d="
  M 342.53 197.73
  C 339.38 214.92 329.02 228.88 317.39 242.08
  A 0.60 0.59 47.8 0 1 316.46 242.03
  Q 307.38 229.16 291.49 232.03
  A 0.72 0.71 -9.7 0 1 290.66 231.45
  C 289.76 226.24 288.18 222.07 290.46 216.73
  Q 301.96 216.85 312.26 212.79
  Q 327.20 206.90 342.53 197.73
  Z"
/>
<path fill="#ffdfae" d="
  M 301.36 261.93
  C 303.98 264.82 305.61 266.10 309.00 266.69
  C 310.91 267.02 311.47 269.30 310.47 270.88
  C 307.95 274.85 301.34 274.00 297.52 272.88
  A 1.04 1.03 5.8 0 1 296.78 271.98
  Q 295.10 253.85 291.59 235.98
  Q 291.40 235.00 292.38 234.75
  C 300.53 232.69 309.67 237.65 314.42 243.84
  Q 316.75 246.86 316.32 250.53
  C 315.63 256.41 308.97 260.24 303.65 261.23
  C 303.16 261.33 302.20 261.20 301.56 261.32
  Q 300.92 261.45 301.36 261.93
  Z"
/>
<path fill="#4a7cb7" d="
  M 250.07 395.03
  Q 246.42 365.81 247.85 336.76
  Q 248.67 320.26 249.05 303.75
  Q 249.21 297.20 248.07 290.86
  A 1.88 1.88 0.0 0 0 246.12 289.32
  Q 243.42 289.48 241.78 292.00
  C 239.76 291.97 238.16 295.30 237.33 296.81
  Q 225.66 318.03 218.72 341.25
  C 212.52 362.03 208.40 382.96 194.92 400.64
  C 191.06 405.70 171.51 404.61 165.74 403.84
  C 159.22 402.98 152.88 400.17 149.05 394.64
  C 147.84 392.90 147.99 391.21 148.38 389.26
  C 152.65 368.31 158.45 347.77 163.41 326.98
  Q 170.65 296.60 174.07 265.69
  A 0.28 0.28 0.0 0 1 174.52 265.49
  C 188.17 275.28 202.45 279.25 219.51 279.25
  C 241.53 279.26 276.73 273.93 291.53 255.20
  Q 291.88 254.76 292.01 255.30
  Q 292.43 257.00 292.63 258.73
  C 296.00 287.79 296.91 316.91 292.35 345.90
  Q 288.82 368.30 283.09 390.27
  Q 282.82 391.30 282.40 392.27
  A 1.33 1.32 -2.1 0 1 281.77 392.94
  Q 278.07 394.75 276.00 395.07
  Q 262.44 397.13 250.07 395.03
  Z"
/>
<path fill="#345a87" d="
  M 250.07 395.03
  L 237.13 392.71
  A 1.16 1.16 0.0 0 1 236.18 391.58
  Q 235.87 371.89 236.13 352.59
  C 236.31 339.16 236.07 326.32 232.62 314.07
  A 1.63 1.63 0.0 0 1 232.65 313.12
  Q 235.12 305.73 239.52 299.34
  C 240.85 297.41 242.55 294.38 241.78 292.00
  Q 243.42 289.48 246.12 289.32
  A 1.88 1.88 0.0 0 1 248.07 290.86
  Q 249.21 297.20 249.05 303.75
  Q 248.67 320.26 247.85 336.76
  Q 246.42 365.81 250.07 395.03
  Z"
/>
<path fill="#5f5f5f" d="
  M 252.44 403.97
  C 251.10 407.14 248.44 405.89 245.50 404.98
  Q 242.36 404.01 239.47 402.59
  A 1.00 1.00 0.0 0 1 238.92 401.62
  L 239.28 396.97
  A 0.67 0.67 0.0 0 1 240.05 396.36
  C 254.49 398.40 268.81 399.77 283.19 395.93
  A 2.03 2.00 -35.0 0 1 284.85 396.21
  C 290.61 400.08 297.08 402.63 303.34 405.72
  Q 304.85 406.46 306.13 407.61
  A 1.85 1.85 0.0 0 1 306.07 410.42
  C 302.50 413.33 298.63 414.13 293.75 413.98
  Q 279.61 413.56 265.97 409.64
  Q 259.99 407.92 255.51 403.38
  A 1.88 1.88 0.0 0 0 252.44 403.97
  Z"
/>
<path fill="#5f5f5f" d="
  M 161.39 406.65
  C 169.47 409.32 176.95 407.99 185.23 407.44
  A 0.48 0.48 0.0 0 1 185.67 408.18
  C 177.49 421.25 166.89 428.94 151.06 423.92
  C 142.95 421.35 147.44 406.81 150.10 401.63
  Q 150.35 401.13 150.81 401.44
  Q 155.80 404.80 161.39 406.65
  Z"
/>
</svg>
